<svg width="80" height="80" viewBox="0 0 80 80" fill="none" xmlns="http://www.w3.org/2000/svg">
<g filter="url(#filter0_b_12_11)">
<circle cx="40" cy="40" r="40" fill="white" fill-opacity="0.1"/>
</g>
<path d="M33.3652 16.6136L34.4391 15.5663L33.3652 16.6136L42.586 26.0686C42.7543 26.2411 42.7543 26.5353 42.586 26.7078L33.3656 36.1624C33.2176 36.3141 32.9939 36.3134 32.847 36.1628L23.6262 26.7078C23.4579 26.5353 23.4579 26.2411 23.6262 26.0686L22.5523 25.0214L23.6262 26.0686L32.847 16.6136C32.9947 16.4621 33.2175 16.4621 33.3652 16.6136Z" stroke="url(#paint0_linear_12_11)" stroke-width="3"/>
<path d="M45.561 50.8219L36.3401 41.3669C35.6037 40.6118 35.6037 39.3883 36.3401 38.6332L45.561 29.1782C46.2974 28.423 47.4905 28.423 48.2269 29.1782L57.4477 38.6332C58.1841 39.3883 58.1841 40.6118 57.4477 41.3669L48.2269 50.8219C47.4911 51.577 46.2974 51.577 45.561 50.8219Z" fill="url(#paint1_angular_12_11)"/>
<path d="M31.7731 64.4342L22.5523 54.9792C21.8159 54.2241 21.8159 53.0006 22.5523 52.2455L31.7731 42.7905C32.5095 42.0353 33.7027 42.0353 34.4391 42.7905L43.6599 52.2455C44.3963 53.0006 44.3963 54.2241 43.6599 54.9792L34.4391 64.4342C33.7027 65.1887 32.5089 65.1887 31.7731 64.4342Z" fill="url(#paint2_linear_12_11)"/>
<defs>
<filter id="filter0_b_12_11" x="-20" y="-20" width="120" height="120" filterUnits="userSpaceOnUse" color-interpolation-filters="sRGB">
<feFlood flood-opacity="0" result="BackgroundImageFix"/>
<feGaussianBlur in="BackgroundImageFix" stdDeviation="10"/>
<feComposite in2="SourceAlpha" operator="in" result="effect1_backgroundBlur_12_11"/>
<feBlend mode="normal" in="SourceGraphic" in2="effect1_backgroundBlur_12_11" result="shape"/>
</filter>
<linearGradient id="paint0_linear_12_11" x1="33.1061" y1="15" x2="33.1061" y2="37.776" gradientUnits="userSpaceOnUse">
<stop stop-color="white"/>
<stop offset="1" stop-color="white" stop-opacity="0.3"/>
</linearGradient>
<radialGradient id="paint1_angular_12_11" cx="0" cy="0" r="1" gradientUnits="userSpaceOnUse" gradientTransform="translate(46.8939 40) rotate(-90) scale(11.3882 11.1061)">
<stop stop-color="#6ACF15"/>
<stop offset="1" stop-color="#209B44"/>
</radialGradient>
<linearGradient id="paint2_linear_12_11" x1="33.1061" y1="42.2241" x2="33.1061" y2="65.0001" gradientUnits="userSpaceOnUse">
<stop stop-color="white" stop-opacity="0.3"/>
<stop offset="1" stop-color="white"/>
</linearGradient>
</defs>
</svg>
