<svg xmlns="http://www.w3.org/2000/svg" width="50" height="50" viewBox="0 0 50 50" fill="none">
  <g filter="url(#filter0_b_2410_315)">
    <rect width="50" height="50" rx="25" fill="white" fill-opacity="0.15"/>
  </g>
  <path fill-rule="evenodd" clip-rule="evenodd" d="M14.9386 14.9386C15.6169 14.2603 16.5613 14 17.6 14H19.4C20.4387 14 21.3831 14.2603 22.0614 14.9386C22.7397 15.6169 23 16.5613 23 17.6V19.4C23 20.4387 22.7397 21.3831 22.0614 22.0614C21.3831 22.7397 20.4387 23 19.4 23H17.6C16.5613 23 15.6169 22.7397 14.9386 22.0614C14.2603 21.3831 14 20.4387 14 19.4V17.6C14 16.5613 14.2603 15.6169 14.9386 14.9386ZM16.2114 16.2114C15.9897 16.4331 15.8 16.8387 15.8 17.6V19.4C15.8 20.1613 15.9897 20.5669 16.2114 20.7886C16.4331 21.0103 16.8387 21.2 17.6 21.2H19.4C20.1613 21.2 20.5669 21.0103 20.7886 20.7886C21.0103 20.5669 21.2 20.1613 21.2 19.4V17.6C21.2 16.8387 21.0103 16.4331 20.7886 16.2114C20.5669 15.9897 20.1613 15.8 19.4 15.8H17.6C16.8387 15.8 16.4331 15.9897 16.2114 16.2114Z" fill="white"/>
  <path fill-rule="evenodd" clip-rule="evenodd" d="M27.9386 14.9386C28.6169 14.2603 29.5613 14 30.6 14H32.4C33.4387 14 34.3831 14.2603 35.0614 14.9386C35.7397 15.6169 36 16.5613 36 17.6V19.4C36 20.4387 35.7397 21.3831 35.0614 22.0614C34.3831 22.7397 33.4387 23 32.4 23H30.6C29.5613 23 28.6169 22.7397 27.9386 22.0614C27.2603 21.3831 27 20.4387 27 19.4V17.6C27 16.5613 27.2603 15.6169 27.9386 14.9386ZM29.2114 16.2114C28.9897 16.4331 28.8 16.8387 28.8 17.6V19.4C28.8 20.1613 28.9897 20.5669 29.2114 20.7886C29.4331 21.0103 29.8387 21.2 30.6 21.2H32.4C33.1613 21.2 33.5669 21.0103 33.7886 20.7886C34.0103 20.5669 34.2 20.1613 34.2 19.4V17.6C34.2 16.8387 34.0103 16.4331 33.7886 16.2114C33.5669 15.9897 33.1613 15.8 32.4 15.8H30.6C29.8387 15.8 29.4331 15.9897 29.2114 16.2114Z" fill="white"/>
  <path fill-rule="evenodd" clip-rule="evenodd" d="M14.9386 27.9386C15.6169 27.2603 16.5613 27 17.6 27H19.4C20.4387 27 21.3831 27.2603 22.0614 27.9386C22.7397 28.6169 23 29.5613 23 30.6V32.4C23 33.4387 22.7397 34.3831 22.0614 35.0614C21.3831 35.7397 20.4387 36 19.4 36H17.6C16.5613 36 15.6169 35.7397 14.9386 35.0614C14.2603 34.3831 14 33.4387 14 32.4V30.6C14 29.5613 14.2603 28.6169 14.9386 27.9386ZM16.2114 29.2114C15.9897 29.4331 15.8 29.8387 15.8 30.6V32.4C15.8 33.1613 15.9897 33.5669 16.2114 33.7886C16.4331 34.0103 16.8387 34.2 17.6 34.2H19.4C20.1613 34.2 20.5669 34.0103 20.7886 33.7886C21.0103 33.5669 21.2 33.1613 21.2 32.4V30.6C21.2 29.8387 21.0103 29.4331 20.7886 29.2114C20.5669 28.9897 20.1613 28.8 19.4 28.8H17.6C16.8387 28.8 16.4331 28.9897 16.2114 29.2114Z" fill="white"/>
  <circle cx="31.5" cy="31.5" r="3.5" stroke="white" stroke-opacity="0.5" stroke-width="2"/>
  <defs>
    <filter id="filter0_b_2410_315" x="-15" y="-15" width="80" height="80" filterUnits="userSpaceOnUse" color-interpolation-filters="sRGB">
      <feFlood flood-opacity="0" result="BackgroundImageFix"/>
      <feGaussianBlur in="BackgroundImageFix" stdDeviation="7.5"/>
      <feComposite in2="SourceAlpha" operator="in" result="effect1_backgroundBlur_2410_315"/>
      <feBlend mode="normal" in="SourceGraphic" in2="effect1_backgroundBlur_2410_315" result="shape"/>
    </filter>
  </defs>
</svg>